<?xml version="1.0" standalone="no"?>
<!DOCTYPE svg PUBLIC "-//W3C//DTD SVG 20010904//EN"
 "http://www.w3.org/TR/2001/REC-SVG-20010904/DTD/svg10.dtd">
<svg version="1.0" xmlns="http://www.w3.org/2000/svg"
 width="700.000000pt" height="700.000000pt" viewBox="0 0 700.000000 700.000000"
 preserveAspectRatio="xMidYMid meet">
<metadata>
Created by potrace 1.14, written by Peter Selinger 2001-2017
</metadata>
<g transform="translate(0.000000,700.000000) scale(0.100000,-0.100000)"
fill="#000000" stroke="none">
<path d="M4635 6312 c-287 -27 -545 -171 -718 -402 -75 -99 -155 -275 -172
-379 -3 -19 -7 -37 -9 -40 -2 -3 -7 -42 -11 -86 -3 -44 -8 -93 -10 -110 -2
-16 -7 -70 -10 -120 -3 -49 -8 -108 -10 -130 -13 -127 -19 -187 -30 -330 -3
-46 -14 -168 -21 -240 -12 -131 -22 -239 -29 -335 -10 -121 -15 -174 -19 -177
-1 -2 -66 -3 -142 -4 -164 0 -204 -14 -239 -84 l-20 -40 -20 40 c-36 72 -63
80 -275 81 -163 2 -190 0 -225 -17 -51 -25 -79 -62 -84 -111 -1 -5 -14 -8 -30
-8 -35 0 -46 -13 -47 -55 l0 -30 -192 -3 -192 -2 0 374 c0 416 6 386 -71 386
-36 0 -38 1 -30 23 5 13 11 37 14 53 2 16 28 134 57 262 49 223 51 234 34 253
-33 37 -70 15 -83 -51 -5 -25 -28 -128 -51 -230 -23 -102 -46 -205 -51 -230
-16 -79 -17 -80 -60 -80 -30 0 -39 4 -40 18 -1 21 2 9 -49 237 -45 204 -59
238 -92 233 -49 -7 -49 -29 3 -258 27 -118 49 -218 49 -222 0 -5 -15 -8 -34
-8 -19 0 -38 -6 -43 -12 -4 -7 -9 -71 -10 -143 0 -71 -2 -135 -2 -140 -1 -7
-46 -11 -124 -10 l-122 0 -22 70 c-19 63 -141 489 -179 625 -25 87 -22 87
-170 46 -70 -20 -131 -41 -135 -48 -4 -7 -7 2 -7 20 1 18 -2 36 -6 39 -13 13
-276 10 -287 -3 -6 -7 -11 -159 -12 -380 l-2 -368 -68 -1 c-38 -1 -71 -6 -75
-12 -4 -6 -7 -108 -7 -227 l1 -216 -228 0 -228 0 2 -1522 3 -1523 910 0 910 0
0 1363 c1 984 4 1365 12 1370 8 5 1665 8 1707 3 7 -1 3 -95 -9 -206 -11 -94
-17 -172 -16 -193 1 -36 -14 -55 -45 -57 -145 -9 -273 -143 -276 -290 -3 -148
98 -279 239 -309 18 -4 212 -8 433 -8 220 0 400 -2 400 -5 0 -3 -6 -19 -14
-36 -8 -18 -54 -126 -101 -242 -48 -115 -93 -223 -100 -240 -8 -16 -24 -55
-35 -85 -12 -30 -28 -68 -35 -85 -7 -16 -30 -70 -50 -120 -21 -49 -43 -103
-50 -120 -7 -16 -48 -113 -90 -215 -42 -102 -80 -194 -85 -205 -46 -99 -129
-309 -125 -314 4 -3 37 -6 74 -6 l68 -1 64 85 c35 47 66 88 69 91 3 3 131 174
285 380 154 206 282 377 285 380 3 3 65 86 139 185 73 99 137 184 141 189 5 4
231 -288 502 -650 l495 -659 71 -1 c46 0 72 4 72 11 0 6 -111 276 -246 601
-135 324 -265 636 -289 694 -24 58 -68 164 -98 237 l-55 131 396 0 c219 0 413
3 432 7 93 17 184 88 223 175 32 70 29 189 -5 255 -49 93 -147 163 -239 170
-22 1 -42 4 -44 6 -4 4 -11 66 -19 174 -3 33 -8 96 -12 140 -4 44 -8 93 -8
109 l-1 30 403 0 c261 1 402 -3 403 -9 1 -5 2 -622 3 -1370 l1 -1360 153 0
152 0 0 1522 0 1523 -573 0 -574 0 -2 43 c-1 23 -3 56 -5 72 -2 17 -7 68 -11
115 -3 47 -8 101 -10 120 -5 45 -15 161 -20 225 -4 64 -14 178 -20 230 -3 22
-7 76 -10 120 -3 44 -7 100 -10 125 -3 25 -7 72 -10 105 -3 33 -7 83 -10 110
-6 70 -15 170 -20 235 -15 184 -22 241 -40 319 -53 227 -196 442 -387 580
-183 132 -444 204 -663 183z m-3696 -1544 c18 -73 107 -386 137 -482 14 -44
23 -85 20 -91 -2 -7 -33 -11 -87 -9 -46 1 -87 2 -90 3 -8 1 -6 631 1 631 4 0
12 -24 19 -52z"/>
</g>
</svg>
