<svg width="1" height="1" viewBox="0 0 1 1" fill="none" xmlns="http://www.w3.org/2000/svg">
<path fill-rule="evenodd" clip-rule="evenodd" d="M0.0625 0.5C0.0625 0.490054 0.0664509 0.480516 0.0734835 0.473484C0.0805161 0.466451 0.0900544 0.4625 0.1 0.4625L0.21875 0.462563V0.25C0.21875 0.233424 0.225335 0.217527 0.237056 0.205806C0.248777 0.194085 0.264674 0.1875 0.28125 0.1875H0.40625C0.422826 0.1875 0.438723 0.194085 0.450444 0.205806C0.462165 0.217527 0.46875 0.233424 0.46875 0.25V0.462563H0.53125V0.375C0.531252 0.359692 0.536872 0.344916 0.547045 0.333477C0.557217 0.322037 0.571234 0.314729 0.586438 0.312937L0.59375 0.3125H0.71875C0.735326 0.3125 0.751223 0.319085 0.762944 0.330806C0.774665 0.342527 0.78125 0.358424 0.78125 0.375V0.462563L0.9 0.4625C0.909946 0.4625 0.919484 0.466451 0.926517 0.473484C0.933549 0.480516 0.9375 0.490054 0.9375 0.5C0.9375 0.509946 0.933549 0.519484 0.926517 0.526516C0.919484 0.533549 0.909946 0.5375 0.9 0.5375L0.78125 0.537562V0.625C0.781248 0.640308 0.775628 0.655084 0.765455 0.666523C0.755283 0.677963 0.741266 0.685271 0.726062 0.687063L0.71875 0.6875H0.59375C0.577174 0.6875 0.561277 0.680915 0.549556 0.669194C0.537835 0.657473 0.53125 0.641576 0.53125 0.625V0.537562H0.46875V0.75C0.46875 0.766576 0.462165 0.782473 0.450444 0.794194C0.438723 0.805915 0.422826 0.8125 0.40625 0.8125H0.28125C0.264674 0.8125 0.248777 0.805915 0.237056 0.794194C0.225335 0.782473 0.21875 0.766576 0.21875 0.75L0.218688 0.537562L0.1 0.5375C0.0900544 0.5375 0.0805161 0.533549 0.0734835 0.526516C0.0664509 0.519484 0.0625 0.509946 0.0625 0.5V0.5Z" />
</svg>
