<svg width="1" height="1" viewBox="0 0 1 1" fill="none" xmlns="http://www.w3.org/2000/svg">
<path fill-rule="evenodd" clip-rule="evenodd" d="M0.0625 0.8375C0.0625 0.827554 0.0664509 0.818016 0.0734835 0.810983C0.0805161 0.803951 0.0900544 0.8 0.1 0.8H0.9C0.909946 0.8 0.919484 0.803951 0.926517 0.810983C0.933549 0.818016 0.9375 0.827554 0.9375 0.8375C0.9375 0.847446 0.933549 0.856984 0.926517 0.864017C0.919484 0.871049 0.909946 0.875 0.9 0.875H0.1C0.0900544 0.875 0.0805161 0.871049 0.0734835 0.864017C0.0664509 0.856984 0.0625 0.847446 0.0625 0.8375V0.8375ZM0.53125 0.5C0.53125 0.483424 0.537835 0.467527 0.549556 0.455806C0.561277 0.444085 0.577174 0.4375 0.59375 0.4375H0.71875C0.735326 0.4375 0.751223 0.444085 0.762944 0.455806C0.774665 0.467527 0.78125 0.483424 0.78125 0.5V0.6875C0.78125 0.704076 0.774665 0.719973 0.762944 0.731694C0.751223 0.743415 0.735326 0.75 0.71875 0.75H0.59375C0.577174 0.75 0.561277 0.743415 0.549556 0.731694C0.537835 0.719973 0.53125 0.704076 0.53125 0.6875V0.5ZM0.21875 0.6875V0.3125C0.21875 0.295924 0.225335 0.280027 0.237056 0.268306C0.248777 0.256585 0.264674 0.25 0.28125 0.25H0.40625C0.422826 0.25 0.438723 0.256585 0.450444 0.268306C0.462165 0.280027 0.46875 0.295924 0.46875 0.3125V0.6875C0.46875 0.704076 0.462165 0.719973 0.450444 0.731694C0.438723 0.743415 0.422826 0.75 0.40625 0.75H0.28125C0.264674 0.75 0.248777 0.743415 0.237056 0.731694C0.225335 0.719973 0.21875 0.704076 0.21875 0.6875Z" />
</svg>
