<svg width="1" height="1" viewBox="0 0 1 1" fill="none" xmlns="http://www.w3.org/2000/svg">
<path fill-rule="evenodd" clip-rule="evenodd" d="M0.0625 0.1625C0.0625 0.172446 0.0664509 0.181984 0.0734835 0.189017C0.0805161 0.196049 0.0900544 0.2 0.1 0.2H0.9C0.909946 0.2 0.919484 0.196049 0.926517 0.189017C0.933549 0.181984 0.9375 0.172446 0.9375 0.1625C0.9375 0.152554 0.933549 0.143016 0.926517 0.135983C0.919484 0.128951 0.909946 0.125 0.9 0.125H0.1C0.0900544 0.125 0.0805161 0.128951 0.0734835 0.135983C0.0664509 0.143016 0.0625 0.152554 0.0625 0.1625V0.1625ZM0.53125 0.5C0.53125 0.516576 0.537835 0.532473 0.549556 0.544194C0.561277 0.555915 0.577174 0.5625 0.59375 0.5625H0.71875C0.735326 0.5625 0.751223 0.555915 0.762944 0.544194C0.774665 0.532473 0.78125 0.516576 0.78125 0.5V0.3125C0.78125 0.295924 0.774665 0.280027 0.762944 0.268306C0.751223 0.256585 0.735326 0.25 0.71875 0.25H0.59375C0.577174 0.25 0.561277 0.256585 0.549556 0.268306C0.537835 0.280027 0.53125 0.295924 0.53125 0.3125V0.5ZM0.21875 0.3125V0.6875C0.21875 0.704076 0.225335 0.719973 0.237056 0.731694C0.248777 0.743415 0.264674 0.75 0.28125 0.75H0.40625C0.422826 0.75 0.438723 0.743415 0.450444 0.731694C0.462165 0.719973 0.46875 0.704076 0.46875 0.6875V0.3125C0.46875 0.295924 0.462165 0.280027 0.450444 0.268306C0.438723 0.256585 0.422826 0.25 0.40625 0.25H0.28125C0.264674 0.25 0.248777 0.256585 0.237056 0.268306C0.225335 0.280027 0.21875 0.295924 0.21875 0.3125V0.3125Z" />
</svg>
