<svg width="1" height="1" viewBox="0 0 1 1" fill="none" xmlns="http://www.w3.org/2000/svg">
<path fill-rule="evenodd" clip-rule="evenodd" d="M0.500002 0.9375C0.490056 0.9375 0.480518 0.933549 0.473485 0.926517C0.466452 0.919484 0.462502 0.909946 0.462502 0.9V0.1C0.462502 0.0900544 0.466452 0.0805161 0.473485 0.0734835C0.480518 0.0664509 0.490056 0.0625 0.500002 0.0625C0.509947 0.0625 0.519485 0.0664509 0.526518 0.0734835C0.533551 0.0805161 0.537502 0.0900544 0.537502 0.1V0.9C0.537502 0.909946 0.533551 0.919484 0.526518 0.926517C0.519485 0.933549 0.509947 0.9375 0.500002 0.9375V0.9375ZM0.662502 0.75C0.645926 0.75 0.630028 0.743415 0.618307 0.731694C0.606586 0.719973 0.600002 0.704076 0.600002 0.6875V0.3125C0.600002 0.295924 0.606586 0.280027 0.618307 0.268306C0.630028 0.256585 0.645926 0.25 0.662502 0.25H0.787502C0.804078 0.25 0.819975 0.256585 0.831696 0.268306C0.843417 0.280027 0.850002 0.295924 0.850002 0.3125V0.6875C0.850002 0.704076 0.843417 0.719973 0.831696 0.731694C0.819975 0.743415 0.804078 0.75 0.787502 0.75H0.662502ZM0.212502 0.75C0.195925 0.75 0.180028 0.743415 0.168307 0.731694C0.156586 0.719973 0.150002 0.704076 0.150002 0.6875V0.3125C0.150002 0.295924 0.156586 0.280027 0.168307 0.268306C0.180028 0.256585 0.195925 0.25 0.212502 0.25H0.337502C0.354078 0.25 0.369975 0.256585 0.381696 0.268306C0.393417 0.280027 0.400002 0.295924 0.400002 0.3125V0.6875C0.400002 0.704076 0.393417 0.719973 0.381696 0.731694C0.369975 0.743415 0.354078 0.75 0.337502 0.75H0.212502Z" />
</svg>
