<svg width="1" height="1" viewBox="0 0 1 1" fill="none" xmlns="http://www.w3.org/2000/svg">
<path fill-rule="evenodd" clip-rule="evenodd" d="M0.1625 0.0625C0.172446 0.0625 0.181984 0.0664509 0.189017 0.0734835C0.196049 0.0805161 0.2 0.0900544 0.2 0.1V0.9C0.2 0.909946 0.196049 0.919484 0.189017 0.926517C0.181984 0.933549 0.172446 0.9375 0.1625 0.9375C0.152554 0.9375 0.143016 0.933549 0.135983 0.926517C0.128951 0.919484 0.125 0.909946 0.125 0.9V0.1C0.125 0.0900544 0.128951 0.0805161 0.135983 0.0734835C0.143016 0.0664509 0.152554 0.0625 0.1625 0.0625V0.0625ZM0.4375 0.25C0.454076 0.25 0.469973 0.256585 0.481694 0.268306C0.493415 0.280027 0.5 0.295924 0.5 0.3125V0.6875C0.5 0.704076 0.493415 0.719973 0.481694 0.731694C0.469973 0.743415 0.454076 0.75 0.4375 0.75H0.3125C0.295924 0.75 0.280027 0.743415 0.268306 0.731694C0.256585 0.719973 0.25 0.704076 0.25 0.6875V0.3125C0.25 0.295924 0.256585 0.280027 0.268306 0.268306C0.280027 0.256585 0.295924 0.25 0.3125 0.25H0.4375ZM0.75 0.25C0.766576 0.25 0.782473 0.256585 0.794194 0.268306C0.805915 0.280027 0.8125 0.295924 0.8125 0.3125V0.6875C0.8125 0.704076 0.805915 0.719973 0.794194 0.731694C0.782473 0.743415 0.766576 0.75 0.75 0.75H0.625C0.608424 0.75 0.592527 0.743415 0.580806 0.731694C0.569085 0.719973 0.5625 0.704076 0.5625 0.6875V0.3125C0.5625 0.295924 0.569085 0.280027 0.580806 0.268306C0.592527 0.256585 0.608424 0.25 0.625 0.25H0.75Z" />
</svg>
