<svg width="1" height="1" viewBox="0 0 1 1" fill="none" xmlns="http://www.w3.org/2000/svg">
<path fill-rule="evenodd" clip-rule="evenodd" d="M0.90625 0.8625C0.914538 0.8625 0.922487 0.865792 0.928347 0.871653C0.934208 0.877513 0.9375 0.885462 0.9375 0.89375V0.90625C0.9375 0.914538 0.934208 0.922487 0.928347 0.928347C0.922487 0.934208 0.914538 0.9375 0.90625 0.9375H0.09375C0.085462 0.9375 0.0775134 0.934208 0.0716529 0.928347C0.0657924 0.922487 0.0625 0.914538 0.0625 0.90625V0.89375C0.0625 0.885462 0.0657924 0.877513 0.0716529 0.871653C0.0775134 0.865792 0.085462 0.8625 0.09375 0.8625H0.90625ZM0.5625 0.1875C0.579076 0.1875 0.594973 0.194085 0.606694 0.205806C0.618415 0.217527 0.625 0.233424 0.625 0.25V0.75C0.625 0.766576 0.618415 0.782473 0.606694 0.794194C0.594973 0.805915 0.579076 0.8125 0.5625 0.8125H0.4375C0.420924 0.8125 0.405027 0.805915 0.393306 0.794194C0.381585 0.782473 0.375 0.766576 0.375 0.75V0.25C0.375 0.233424 0.381585 0.217527 0.393306 0.205806C0.405027 0.194085 0.420924 0.1875 0.4375 0.1875H0.5625ZM0.90625 0.0625C0.914538 0.0625 0.922487 0.0657924 0.928347 0.0716529C0.934208 0.0775134 0.9375 0.085462 0.9375 0.09375V0.10625C0.9375 0.110354 0.936692 0.114417 0.935121 0.118209C0.933551 0.122 0.931249 0.125445 0.928347 0.128347C0.925445 0.131249 0.922 0.133551 0.918209 0.135121C0.914417 0.136692 0.910354 0.1375 0.90625 0.1375H0.09375C0.085462 0.1375 0.0775134 0.134208 0.0716529 0.128347C0.0657924 0.122487 0.0625 0.114538 0.0625 0.10625V0.09375C0.0625 0.085462 0.0657924 0.0775134 0.0716529 0.0716529C0.0775134 0.0657924 0.085462 0.0625 0.09375 0.0625H0.90625V0.0625Z" />
</svg>
