<svg width="1" height="1" viewBox="0 0 1 1" fill="none" xmlns="http://www.w3.org/2000/svg">
<path fill-rule="evenodd" clip-rule="evenodd" d="M0.0625 0.8375C0.0625 0.827554 0.0664509 0.818016 0.0734835 0.810983C0.0805161 0.803951 0.0900544 0.8 0.1 0.8H0.9C0.909946 0.8 0.919484 0.803951 0.926517 0.810983C0.933549 0.818016 0.9375 0.827554 0.9375 0.8375C0.9375 0.847446 0.933549 0.856984 0.926517 0.864017C0.919484 0.871049 0.909946 0.875 0.9 0.875H0.1C0.0900544 0.875 0.0805161 0.871049 0.0734835 0.864017C0.0664509 0.856984 0.0625 0.847446 0.0625 0.8375V0.8375ZM0.375 0.3125C0.375 0.295924 0.381585 0.280027 0.393306 0.268306C0.405027 0.256585 0.420924 0.25 0.4375 0.25H0.5625C0.579076 0.25 0.594973 0.256585 0.606694 0.268306C0.618415 0.280027 0.625 0.295924 0.625 0.3125V0.6875C0.625 0.704076 0.618415 0.719973 0.606694 0.731694C0.594973 0.743415 0.579076 0.75 0.5625 0.75H0.4375C0.420924 0.75 0.405027 0.743415 0.393306 0.731694C0.381585 0.719973 0.375 0.704076 0.375 0.6875V0.3125Z" />
</svg>
