<?xml version="1.0" standalone="no"?>
<!DOCTYPE svg PUBLIC "-//W3C//DTD SVG 20010904//EN"
 "http://www.w3.org/TR/2001/REC-SVG-20010904/DTD/svg10.dtd">
<svg version="1.0" xmlns="http://www.w3.org/2000/svg"
 width="128.000000pt" height="128.000000pt" viewBox="0 0 128.000000 128.000000"
 preserveAspectRatio="xMidYMid meet">
<metadata>
Created by potrace 1.11, written by Peter Selinger 2001-2013
</metadata>
<g transform="translate(0.000000,128.000000) scale(0.100000,-0.100000)"
fill="#000000" stroke="none">
<path d="M109 1263 c-1 -10 0 -32 1 -50 2 -36 -12 -43 -73 -40 -23 2 -37 -2
-37 -10 0 -7 20 -13 53 -15 51 -3 52 -4 54 -35 1 -19 -4 -34 -10 -34 -7 -1
-30 -2 -51 -3 -62 -2 -57 -24 6 -28 l53 -3 1 -407 1 -408 -53 0 c-37 0 -54 -4
-54 -13 0 -8 13 -12 37 -12 54 2 74 -11 70 -43 -3 -25 -8 -27 -55 -30 -29 -2
-52 -7 -52 -13 0 -10 7 -11 63 -11 30 0 38 -4 43 -22 3 -12 4 -26 3 -32 -4
-23 2 -54 11 -54 6 0 10 24 10 53 l0 53 35 2 c37 3 36 5 39 -67 0 -19 7 -36
13 -38 9 -3 13 11 13 50 l0 54 410 0 410 0 0 -54 c0 -39 4 -53 13 -51 6 3 13
19 13 36 3 75 2 73 32 68 15 -2 30 -5 35 -5 4 -1 7 -23 7 -51 0 -27 5 -50 10
-50 10 0 13 11 12 45 -3 54 6 64 55 62 29 -1 48 3 51 11 2 8 -11 12 -46 12
-53 0 -65 11 -58 55 2 17 11 20 51 20 30 0 50 5 52 13 3 8 -11 12 -50 12 l-54
0 1 408 1 407 53 3 c69 4 66 27 -4 27 l-49 0 0 35 0 35 53 3 c28 2 52 7 52 13
0 9 -7 10 -70 13 l-35 1 -1 49 c0 29 -5 51 -12 54 -8 2 -12 -12 -12 -47 0 -28
-3 -52 -7 -53 -31 -6 -63 -3 -66 6 -2 6 -3 30 -2 54 1 29 -2 42 -11 42 -9 0
-14 -18 -16 -52 l-3 -53 -405 0 -405 0 -3 53 c-2 34 -7 52 -16 52 -9 0 -12
-14 -11 -45 3 -50 -11 -68 -47 -63 -20 3 -23 9 -26 56 -2 28 -7 52 -13 52 -5
0 -9 -8 -10 -17z m92 -120 c0 -5 2 -18 3 -31 2 -12 -2 -26 -8 -30 -10 -8 -17
-8 -53 -4 -13 2 -18 54 -6 65 9 9 63 9 64 0z m849 -30 l0 -38 -405 0 c-435 0
-427 -1 -417 51 l4 24 409 0 409 0 0 -37z m98 0 c-3 -35 -5 -37 -37 -38 -30 0
-35 4 -36 25 -3 40 5 50 42 50 33 0 34 -1 31 -37z m-943 -473 l0 -405 -38 -3
-37 -3 0 411 0 411 37 -3 38 -3 0 -405z m845 0 l0 -410 -410 0 -410 0 0 410 0
409 410 1 409 0 1 -410z m98 3 l-3 -408 -35 0 -35 0 -1 395 c0 217 2 401 4
408 2 6 19 12 38 12 l34 0 -2 -407z m-949 -447 c5 -4 8 -14 6 -24 -2 -9 -4
-23 -4 -29 -1 -8 -15 -13 -36 -13 -33 0 -35 2 -35 34 0 19 6 36 13 39 13 5 42
1 56 -7z m849 -29 l3 -37 -410 0 -411 0 0 38 0 37 407 0 408 0 3 -38z m100 0
c3 -36 2 -37 -31 -37 -36 0 -48 13 -42 46 2 11 4 21 4 24 1 3 16 5 34 5 30 -1
32 -3 35 -38z"/>
<path d="M569 842 c-33 -4 -58 -30 -65 -67 -6 -36 1 -56 19 -49 9 3 12 14 9
30 -3 19 0 24 16 24 21 0 58 -62 47 -79 -3 -5 -1 -12 5 -16 6 -4 8 -10 5 -15
-3 -5 -1 -11 3 -14 5 -3 10 -28 11 -57 1 -28 3 -55 6 -59 9 -15 -55 -63 -92
-69 -50 -8 -55 -34 -13 -56 18 -9 30 -13 27 -8 -3 5 7 14 21 21 15 6 36 25 45
42 11 18 23 28 30 24 7 -4 9 -4 5 1 -4 4 6 27 22 51 17 23 30 47 30 53 0 5 8
14 18 20 9 5 16 12 15 15 -4 13 10 46 20 46 6 0 7 3 4 7 -4 3 -3 11 2 17 15
19 31 89 25 112 -3 12 -14 24 -24 27 -23 6 -33 -18 -35 -83 -3 -71 -4 -78 -20
-94 -9 -8 -16 -19 -17 -23 0 -4 -4 -17 -9 -28 -7 -18 -8 -18 -8 5 1 26 -3 51
-22 131 -13 59 -45 95 -80 91z"/>
</g>
</svg>
