<svg width="1" height="1" viewBox="0 0 1 1" fill="none" xmlns="http://www.w3.org/2000/svg">
<path fill-rule="evenodd" clip-rule="evenodd" d="M0.90625 0.8625C0.914538 0.8625 0.922487 0.865792 0.928347 0.871653C0.934208 0.877513 0.9375 0.885462 0.9375 0.89375V0.90625C0.9375 0.914538 0.934208 0.922487 0.928347 0.928347C0.922487 0.934208 0.914538 0.9375 0.90625 0.9375H0.09375C0.085462 0.9375 0.0775134 0.934208 0.0716529 0.928347C0.0657924 0.922487 0.0625 0.914538 0.0625 0.90625V0.89375C0.0625 0.885462 0.0657924 0.877513 0.0716529 0.871653C0.0775134 0.865792 0.085462 0.8625 0.09375 0.8625H0.90625ZM0.40625 0.1875C0.422826 0.1875 0.438723 0.194085 0.450444 0.205806C0.462165 0.217527 0.46875 0.233424 0.46875 0.25V0.75C0.46875 0.766576 0.462165 0.782473 0.450444 0.794194C0.438723 0.805915 0.422826 0.8125 0.40625 0.8125H0.28125C0.264674 0.8125 0.248777 0.805915 0.237056 0.794194C0.225335 0.782473 0.21875 0.766576 0.21875 0.75V0.25C0.21875 0.233424 0.225335 0.217527 0.237056 0.205806C0.248777 0.194085 0.264674 0.1875 0.28125 0.1875H0.40625ZM0.71875 0.1875C0.735326 0.1875 0.751223 0.194085 0.762944 0.205806C0.774665 0.217527 0.78125 0.233424 0.78125 0.25V0.75C0.78125 0.766576 0.774665 0.782473 0.762944 0.794194C0.751223 0.805915 0.735326 0.8125 0.71875 0.8125H0.59375C0.577174 0.8125 0.561277 0.805915 0.549556 0.794194C0.537835 0.782473 0.53125 0.766576 0.53125 0.75V0.25C0.53125 0.233424 0.537835 0.217527 0.549556 0.205806C0.561277 0.194085 0.577174 0.1875 0.59375 0.1875H0.71875ZM0.90625 0.0625C0.914538 0.0625 0.922487 0.0657924 0.928347 0.0716529C0.934208 0.0775134 0.9375 0.085462 0.9375 0.09375V0.10625C0.9375 0.110354 0.936692 0.114417 0.935121 0.118209C0.933551 0.122 0.931249 0.125445 0.928347 0.128347C0.925445 0.131249 0.922 0.133551 0.918209 0.135121C0.914417 0.136692 0.910354 0.1375 0.90625 0.1375H0.09375C0.085462 0.1375 0.0775134 0.134208 0.0716529 0.128347C0.0657924 0.122487 0.0625 0.114538 0.0625 0.10625V0.09375C0.0625 0.085462 0.0657924 0.0775134 0.0716529 0.0716529C0.0775134 0.0657924 0.085462 0.0625 0.09375 0.0625H0.90625V0.0625Z" />
</svg>
