<svg width="1" height="1" viewBox="0 0 1 1" fill="none" xmlns="http://www.w3.org/2000/svg">
<path fill-rule="evenodd" clip-rule="evenodd" d="M0.8375 0.0625C0.827554 0.0625 0.818016 0.0664509 0.810983 0.0734835C0.803951 0.0805161 0.8 0.0900544 0.8 0.1V0.9C0.8 0.909946 0.803951 0.919484 0.810983 0.926517C0.818016 0.933549 0.827554 0.9375 0.8375 0.9375C0.847446 0.9375 0.856984 0.933549 0.864017 0.926517C0.871049 0.919484 0.875 0.909946 0.875 0.9V0.1C0.875 0.0900544 0.871049 0.0805161 0.864017 0.0734835C0.856984 0.0664509 0.847446 0.0625 0.8375 0.0625V0.0625ZM0.5625 0.25C0.545924 0.25 0.530027 0.256585 0.518306 0.268306C0.506585 0.280027 0.5 0.295924 0.5 0.3125V0.6875C0.5 0.704076 0.506585 0.719973 0.518306 0.731694C0.530027 0.743415 0.545924 0.75 0.5625 0.75H0.6875C0.704076 0.75 0.719973 0.743415 0.731694 0.731694C0.743415 0.719973 0.75 0.704076 0.75 0.6875V0.3125C0.75 0.295924 0.743415 0.280027 0.731694 0.268306C0.719973 0.256585 0.704076 0.25 0.6875 0.25H0.5625ZM0.25 0.25C0.233424 0.25 0.217527 0.256585 0.205806 0.268306C0.194085 0.280027 0.1875 0.295924 0.1875 0.3125V0.6875C0.1875 0.704076 0.194085 0.719973 0.205806 0.731694C0.217527 0.743415 0.233424 0.75 0.25 0.75H0.375C0.391576 0.75 0.407473 0.743415 0.419194 0.731694C0.430915 0.719973 0.4375 0.704076 0.4375 0.6875V0.3125C0.4375 0.295924 0.430915 0.280027 0.419194 0.268306C0.407473 0.256585 0.391576 0.25 0.375 0.25H0.25Z" />
</svg>
