<svg width="1" height="1" viewBox="0 0 1 1" fill="none" xmlns="http://www.w3.org/2000/svg">
<path fill-rule="evenodd" clip-rule="evenodd" d="M0.9005 0.938564C0.890554 0.938564 0.881016 0.934613 0.873984 0.927581C0.866951 0.920548 0.863 0.91101 0.863 0.901064V0.688314C0.862998 0.703623 0.857378 0.718398 0.847205 0.729838C0.837033 0.741277 0.823016 0.748586 0.807813 0.750377L0.8005 0.750814H0.6755C0.660182 0.75081 0.645399 0.745182 0.633958 0.734996C0.622517 0.724811 0.615214 0.710779 0.613437 0.695564L0.613 0.688314V0.313314C0.612988 0.297986 0.618611 0.283187 0.628797 0.271733C0.638984 0.260279 0.653025 0.252967 0.66825 0.251189L0.6755 0.250814H0.8005C0.815819 0.250801 0.83061 0.256414 0.842062 0.266588C0.853515 0.276762 0.860833 0.290788 0.862625 0.306002L0.863 0.313314V0.101064C0.863 0.0911187 0.866951 0.0815804 0.873984 0.0745478C0.881016 0.0675152 0.890554 0.0635643 0.9005 0.0635643C0.910446 0.0635643 0.919984 0.0675152 0.927016 0.0745478C0.934049 0.0815804 0.938 0.0911187 0.938 0.101064V0.901064C0.938 0.91101 0.934049 0.920548 0.927016 0.927581C0.919984 0.934613 0.910446 0.938564 0.9005 0.938564V0.938564ZM0.1 0.938564C0.0900544 0.938564 0.0805161 0.934613 0.0734835 0.927581C0.0664509 0.920548 0.0625 0.91101 0.0625 0.901064V0.101064C0.0625 0.0911187 0.0664509 0.0815804 0.0734835 0.0745478C0.0805161 0.0675152 0.0900544 0.0635643 0.1 0.0635643C0.109946 0.0635643 0.119484 0.0675152 0.126517 0.0745478C0.133549 0.0815804 0.1375 0.0911187 0.1375 0.101064V0.313314L0.137938 0.306002C0.139729 0.290799 0.147037 0.276781 0.158477 0.266609C0.169916 0.256437 0.184692 0.250816 0.2 0.250814H0.325L0.332312 0.251189C0.347526 0.252982 0.361552 0.260299 0.371726 0.271752C0.3819 0.283205 0.387513 0.297995 0.3875 0.313314V0.688314L0.387062 0.695564C0.385286 0.710779 0.377983 0.724811 0.366542 0.734996C0.355101 0.745182 0.340318 0.75081 0.325 0.750814H0.2L0.192687 0.750377C0.177484 0.748586 0.163467 0.741277 0.153295 0.729838C0.143122 0.718398 0.137502 0.703623 0.1375 0.688314V0.901064C0.1375 0.91101 0.133549 0.920548 0.126517 0.927581C0.119484 0.934613 0.109946 0.938564 0.1 0.938564V0.938564Z" />
</svg>
