<svg width="1" height="1" viewBox="0 0 1 1" fill="none" xmlns="http://www.w3.org/2000/svg">
<path fill-rule="evenodd" clip-rule="evenodd" d="M0.9375 0.5C0.9375 0.509946 0.933549 0.519484 0.926517 0.526516C0.919484 0.533549 0.909946 0.5375 0.9 0.5375L0.625 0.537437V0.75C0.625 0.766576 0.618415 0.782473 0.606694 0.794194C0.594973 0.805915 0.579076 0.8125 0.5625 0.8125H0.4375C0.420924 0.8125 0.405027 0.805915 0.393306 0.794194C0.381585 0.782473 0.375 0.766576 0.375 0.75V0.537437L0.1 0.5375C0.0900544 0.5375 0.0805161 0.533549 0.0734835 0.526516C0.0664509 0.519484 0.0625 0.509946 0.0625 0.5C0.0625 0.490054 0.0664509 0.480516 0.0734835 0.473484C0.0805161 0.466451 0.0900544 0.4625 0.1 0.4625L0.375 0.462438V0.25C0.375 0.233424 0.381585 0.217527 0.393306 0.205806C0.405027 0.194085 0.420924 0.1875 0.4375 0.1875H0.5625C0.579076 0.1875 0.594973 0.194085 0.606694 0.205806C0.618415 0.217527 0.625 0.233424 0.625 0.25V0.462438L0.9 0.4625C0.909946 0.4625 0.919484 0.466451 0.926517 0.473484C0.933549 0.480516 0.9375 0.490054 0.9375 0.5V0.5Z" />
</svg>
