<svg width="1" height="1" viewBox="0 0 1 1" fill="none" xmlns="http://www.w3.org/2000/svg">
<path d="M0.566248 0.499998L0.767498 0.298748C0.772104 0.294457 0.775797 0.289282 0.778359 0.283532C0.780921 0.277782 0.782299 0.271575 0.78241 0.265281C0.782521 0.258987 0.781363 0.252735 0.779006 0.246898C0.776648 0.241062 0.773139 0.235759 0.768688 0.231308C0.764237 0.226857 0.758935 0.223348 0.753098 0.22099C0.747261 0.218633 0.741009 0.217475 0.734716 0.217586C0.728422 0.217697 0.722214 0.219075 0.716465 0.221637C0.710715 0.224199 0.70554 0.227893 0.701248 0.232498L0.499998 0.433748L0.298748 0.232498C0.294457 0.227893 0.289282 0.224199 0.283532 0.221637C0.277782 0.219075 0.271575 0.217697 0.265281 0.217586C0.258987 0.217475 0.252735 0.218633 0.246898 0.22099C0.241062 0.223348 0.235759 0.226857 0.231308 0.231308C0.226857 0.235759 0.223348 0.241062 0.22099 0.246898C0.218633 0.252735 0.217475 0.258987 0.217586 0.265281C0.217697 0.271575 0.219075 0.277782 0.221637 0.283532C0.224199 0.289282 0.227893 0.294457 0.232498 0.298748L0.433748 0.499998L0.232498 0.701248C0.227893 0.70554 0.224199 0.710715 0.221637 0.716465C0.219075 0.722214 0.217697 0.728422 0.217586 0.734716C0.217475 0.741009 0.218633 0.747261 0.22099 0.753098C0.223348 0.758935 0.226857 0.764237 0.231308 0.768688C0.235759 0.773139 0.241062 0.776648 0.246898 0.779006C0.252735 0.781363 0.258987 0.782521 0.265281 0.78241C0.271575 0.782299 0.277782 0.780921 0.283532 0.778359C0.289282 0.775797 0.294457 0.772104 0.298748 0.767498L0.499998 0.566248L0.701248 0.767498C0.705592 0.77186 0.710754 0.77532 0.716438 0.777682C0.722123 0.780043 0.728218 0.781259 0.734373 0.781259C0.740529 0.781259 0.746623 0.780043 0.752308 0.777682C0.757992 0.77532 0.763155 0.77186 0.767498 0.767498C0.776276 0.758709 0.781207 0.746795 0.781207 0.734373C0.781207 0.721951 0.776276 0.710037 0.767498 0.701248L0.566248 0.499998Z" />
</svg>
