<svg width="1" height="1" viewBox="0 0 1 1" fill="none" xmlns="http://www.w3.org/2000/svg">
<path fill-rule="evenodd" clip-rule="evenodd" d="M0.0625 0.1625C0.0625 0.172446 0.0664509 0.181984 0.0734835 0.189017C0.0805161 0.196049 0.0900544 0.2 0.1 0.2H0.9C0.909946 0.2 0.919484 0.196049 0.926517 0.189017C0.933549 0.181984 0.9375 0.172446 0.9375 0.1625C0.9375 0.152554 0.933549 0.143016 0.926517 0.135983C0.919484 0.128951 0.909946 0.125 0.9 0.125H0.1C0.0900544 0.125 0.0805161 0.128951 0.0734835 0.135983C0.0664509 0.143016 0.0625 0.152554 0.0625 0.1625V0.1625ZM0.375 0.6875C0.375 0.704076 0.381585 0.719973 0.393306 0.731694C0.405027 0.743415 0.420924 0.75 0.4375 0.75H0.5625C0.579076 0.75 0.594973 0.743415 0.606694 0.731694C0.618415 0.719973 0.625 0.704076 0.625 0.6875V0.3125C0.625 0.295924 0.618415 0.280027 0.606694 0.268306C0.594973 0.256585 0.579076 0.25 0.5625 0.25H0.4375C0.420924 0.25 0.405027 0.256585 0.393306 0.268306C0.381585 0.280027 0.375 0.295924 0.375 0.3125V0.6875Z" />
</svg>
